<svg xmlns="http://www.w3.org/2000/svg" width="1089" height="322" fill="none" viewBox="0 0 1089 322">
  <mask id="a" width="595" height="203" x="15" y="60" fill="#000" maskUnits="userSpaceOnUse">
    <path fill="#fff" d="M15 60h595v203H15z"/>
    <path d="M79.877 67.868c13.313 0 24.81 2.335 34.492 7.003 9.855 4.495 17.376 11.065 22.563 19.71 5.359 8.471 8.039 18.499 8.039 30.083 0 11.93-2.68 22.217-8.039 30.861-5.187 8.645-12.708 15.302-22.563 19.97-9.682 4.668-21.18 7.002-34.492 7.002h-31.9V252H22.304V67.868h57.574ZM78.58 157.86c12.967 0 22.736-2.767 29.306-8.299 6.569-5.706 9.854-14.005 9.854-24.897 0-10.547-3.285-18.5-9.854-23.859-6.57-5.533-16.339-8.3-29.306-8.3H47.978v65.355H78.58Zm95.595-2.335c2.594-13.312 9.077-23.945 19.451-31.898 10.546-8.126 23.081-12.189 37.604-12.189 17.289 0 30.862 4.927 40.717 14.782 9.854 9.855 14.782 24.119 14.782 42.791v52.128c0 2.939.692 5.1 2.075 6.483 1.383 1.383 3.458 2.075 6.224 2.075h5.965V252h-7.262c-7.953 0-14.436-1.902-19.45-5.705-5.014-3.804-8.213-8.904-9.596-15.302-2.766 6.743-8.04 12.449-15.82 17.117-7.78 4.668-16.77 7.002-26.971 7.002-9.336 0-17.808-1.556-25.415-4.668-7.608-3.112-13.659-7.607-18.154-13.486-4.323-6.051-6.484-13.053-6.484-21.006 0-8.991 2.075-16.252 6.224-21.785 4.15-5.532 9.942-9.768 17.376-12.708 7.435-3.112 17.117-5.791 29.046-8.039l37.086-7.262c-.173-10.373-3.026-18.153-8.558-23.34-5.36-5.36-12.708-8.04-22.044-8.04-7.78 0-14.35 2.075-19.71 6.224-5.36 4.15-8.818 9.596-10.374 16.339l-26.712-1.816Zm24.119 59.908c.173 5.187 2.507 9.423 7.002 12.708 4.495 3.285 11.065 4.927 19.71 4.927 6.916 0 13.14-1.556 18.672-4.668 5.706-3.112 10.201-7.607 13.486-13.486 3.285-5.878 4.928-12.88 4.928-21.006v-5.965l-29.565 5.187-4.928.778c-7.088 1.21-12.621 2.42-16.597 3.631-3.804 1.21-6.916 3.285-9.337 6.224-2.247 2.766-3.371 6.656-3.371 11.67Zm192.588-137.19v133.041c0 5.705 1.47 10.2 4.409 13.485 3.112 3.285 7.521 4.928 13.227 4.928h35.788V252h-37.345c-14.004 0-24.377-3.371-31.12-10.114-6.743-6.916-10.115-16.771-10.115-29.565V78.242h25.156Zm53.943 36.307v22.303H326.566V114.55h118.259Zm72.514-46.681v76.505l-3.371-3.89c2.939-9.509 8.299-16.684 16.079-21.526 7.78-5.013 16.684-7.52 26.712-7.52 14.869 0 26.193 4.841 33.973 14.523 7.781 9.509 11.671 22.044 11.671 37.604V252h-25.156v-80.655c0-12.448-2.161-21.698-6.484-27.749-4.322-6.224-11.151-9.336-20.488-9.336-10.2 0-18.24 3.198-24.118 9.595-5.879 6.224-8.818 15.388-8.818 27.49V252h-25.156V67.868h25.156Z"/>
  </mask>
  <path fill="#4966FF" d="m114.369 74.87-3.04 6.306.067.032.068.031 2.905-6.368Zm22.563 19.71-6.003 3.602.043.071.044.07 5.916-3.742Zm0 60.945-5.95-3.688-.027.043-.026.044 6.003 3.601Zm-22.563 19.97-2.997-6.327-.021.011-.022.01 3.04 6.306Zm-66.391 7.002v-7h-7v7h7Zm0 69.503v7h7v-7h-7Zm-25.675 0h-7v7h7v-7Zm0-184.132v-7h-7v7h7Zm85.583 81.693 4.508 5.354.041-.034.04-.035-4.589-5.285Zm0-48.756-4.509 5.354.041.035.043.035 4.425-5.424Zm-59.908-8.3v-7h-7v7h7Zm0 65.355h-7v7h7v-7Zm31.899-82.992c12.505 0 22.917 2.193 31.452 6.308l6.08-12.61c-10.829-5.222-23.412-7.698-37.532-7.698v14Zm31.587 6.371c8.667 3.954 15.062 9.605 19.465 16.943l12.005-7.203c-5.971-9.95-14.617-17.44-25.66-22.477l-5.81 12.737Zm19.552 17.084c4.547 7.187 6.955 15.872 6.955 26.341h14c0-12.698-2.951-24.069-9.124-33.826l-11.831 7.485Zm6.955 26.341c0 10.855-2.427 19.815-6.989 27.173l11.899 7.377c6.158-9.932 9.09-21.546 9.09-34.55h-14Zm-7.042 27.26c-4.417 7.362-10.844 13.117-19.557 17.244l5.994 12.653c10.997-5.209 19.612-12.767 25.568-22.694l-12.005-7.203Zm-19.6 17.265c-8.535 4.115-18.947 6.308-31.452 6.308v14c14.12 0 26.703-2.476 37.532-7.697l-6.08-12.611Zm-31.452 6.308h-31.9v14h31.9v-14Zm-38.9 7V252h14v-69.503h-14Zm7 62.503H22.304v14h25.675v-14Zm-18.674 7V67.868h-14V252h14Zm-7-177.132h57.574v-14H22.303v14ZM78.58 164.86c13.808 0 25.478-2.925 33.814-9.945l-9.017-10.709c-4.803 4.045-12.671 6.654-24.797 6.654v14Zm33.895-10.014c8.474-7.359 12.265-17.814 12.265-30.182h-14c0 9.416-2.778 15.559-7.444 19.611l9.179 10.571Zm12.265-30.182c0-12.088-3.84-22.276-12.43-29.283l-8.849 10.848c4.55 3.712 7.279 9.43 7.279 18.435h14ZM112.394 95.45c-8.336-7.02-20.006-9.944-33.814-9.944v14c12.126 0 19.993 2.608 24.797 6.653l9.017-10.709ZM78.58 85.506H47.978v14H78.58v-14Zm-37.602 7v65.354h14V92.506h-14Zm7 72.354H78.58v-14H47.978v14Zm126.197-9.335-6.871-1.338-1.516 7.785 7.913.537.474-6.984Zm19.451-31.898 4.259 5.555.007-.005.006-.005-4.272-5.545Zm78.321 2.593-4.95 4.95 4.95-4.95Zm16.857 101.402-4.95 4.95 4.95-4.95Zm12.189 2.075h7v-7h-7v7Zm0 22.303v7h7v-7h-7Zm-26.712-5.705 4.23-5.577-4.23 5.577Zm-9.596-15.302 6.842-1.479-4.763-22.03-8.555 20.853 6.476 2.656Zm-15.82 17.117-3.601-6.003 3.601 6.003Zm-70.54-11.152-5.696 4.069.066.093.069.09 5.561-4.252Zm-.26-42.791 5.6 4.2-5.6-4.2Zm17.376-12.708 2.574 6.51.065-.025.064-.027-2.703-6.458Zm29.046-8.039 1.296 6.879.025-.005.024-.005-1.345-6.869Zm37.086-7.262 1.345 6.87 5.752-1.126-.098-5.86-6.999.116Zm-8.558-23.34-4.95 4.95.08.079.082.078 4.788-5.107Zm-41.754-1.816-4.285-5.535 4.285 5.535Zm-10.374 16.339-.474 6.984 5.953.404 1.342-5.814-6.821-1.574Zm-2.593 58.092h-7v.117l.004.116 6.996-.233Zm7.002 12.708-4.13 5.651 4.13-5.651Zm38.382.259-3.351-6.145-.041.022-.039.022 3.431 6.101Zm13.486-13.486-6.11-3.414 6.11 3.414Zm4.928-26.971h7v-8.335l-8.21 1.44 1.21 6.895Zm-29.565 5.187 1.092 6.914.059-.009.058-.011-1.209-6.894Zm-4.928.778-1.091-6.915-.044.007-.043.008 1.178 6.9Zm-16.597 3.631-2.039-6.697-.042.013-.042.013 2.123 6.671Zm-9.337 6.224-5.403-4.45-.015.018-.014.018 5.432 4.414Zm-20.619-46.899c2.28-11.705 7.876-20.811 16.839-27.682l-8.518-11.111c-11.785 9.035-19.156 21.195-22.063 36.116l13.742 2.677Zm16.852-27.692c9.209-7.096 20.206-10.734 33.332-10.734v-14c-15.92 0-29.993 4.487-41.877 13.644l8.545 11.09Zm33.332-10.734c15.906 0 27.525 4.49 35.767 12.732l9.899-9.9c-11.468-11.468-26.993-16.832-45.666-16.832v14Zm35.767 12.732c8.144 8.144 12.732 20.375 12.732 37.841h14c0-19.878-5.267-36.175-16.833-47.741l-9.899 9.9Zm12.732 37.841v52.128h14v-52.128h-14Zm0 52.128c0 3.874.896 8.204 4.125 11.433l9.899-9.9c.215.215.222.347.162.158-.071-.222-.186-.744-.186-1.691h-14Zm4.125 11.433c3.159 3.159 7.329 4.125 11.174 4.125v-14c-.821 0-1.254-.105-1.417-.16-.13-.043-.021-.028.142.135l-9.899 9.9Zm11.174 4.125h5.965v-14h-5.965v14Zm-1.035-7V252h14v-22.303h-14Zm7 15.303h-7.262v14h7.262v-14Zm-7.262 0c-6.833 0-11.712-1.622-15.22-4.282l-8.461 11.153c6.52 4.947 14.608 7.129 23.681 7.129v-14Zm-15.22-4.282c-3.625-2.751-5.939-6.369-6.984-11.204l-13.684 2.959c1.721 7.959 5.804 14.541 12.207 19.398l8.461-11.153Zm-20.302-12.381c-2.066 5.035-6.137 9.685-12.945 13.77l7.203 12.005c8.752-5.251 15.228-12.012 18.694-20.462l-12.952-5.313Zm-12.945 13.77c-6.562 3.937-14.277 6.005-23.37 6.005v14c11.308 0 21.574-2.6 30.573-8l-7.203-12.005Zm-23.37 6.005c-8.55 0-16.106-1.423-22.765-4.147l-5.301 12.958c8.555 3.5 17.943 5.189 28.066 5.189v-14Zm-22.765-4.147c-6.587-2.695-11.585-6.474-15.244-11.259l-11.121 8.504c5.332 6.973 12.437 12.183 21.064 15.713l5.301-12.958Zm-15.108-11.075c-3.414-4.78-5.18-10.337-5.18-16.938h-14c0 9.305 2.557 17.752 7.788 25.075l11.392-8.137Zm-5.18-16.938c0-7.931 1.823-13.584 4.824-17.585l-11.2-8.4c-5.297 7.064-7.624 15.935-7.624 25.985h14Zm4.824-17.585c3.259-4.345 7.927-7.859 14.35-10.398l-5.147-13.019c-8.447 3.339-15.362 8.297-20.403 15.017l11.2 8.4Zm14.479-10.45c6.816-2.854 15.976-5.421 27.639-7.618l-2.592-13.758c-12.196 2.298-22.4 5.09-30.453 8.461l5.406 12.915Zm27.688-7.628 37.086-7.261-2.69-13.739-37.086 7.261 2.69 13.739Zm42.74-14.247c-.193-11.551-3.407-21.429-10.77-28.331l-9.575 10.214c3.703 3.471 6.194 9.153 6.347 18.35l13.998-.233Zm-10.608-28.174c-6.963-6.963-16.257-10.09-26.993-10.09v14c7.936 0 13.338 2.234 17.094 5.99l9.899-9.9Zm-26.993-10.09c-9.092 0-17.232 2.453-23.995 7.689l8.57 11.07c3.956-3.062 8.956-4.759 15.425-4.759v-14Zm-23.995 7.689c-6.665 5.16-10.999 12.02-12.909 20.3l13.641 3.148c1.201-5.206 3.784-9.239 7.838-12.378l-8.57-11.07Zm-5.614 14.89-26.712-1.815-.949 13.967 26.712 1.816.949-13.968Zm-10.064 65.309c.25 7.512 3.781 13.678 9.868 18.126l8.26-11.303c-2.903-2.122-4.041-4.427-4.136-7.289l-13.992.466Zm9.868 18.126c6.193 4.526 14.477 6.276 23.84 6.276v-14c-7.927 0-12.782-1.534-15.58-3.579l-8.26 11.303Zm23.84 6.276c8.007 0 15.432-1.814 22.104-5.567l-6.863-12.202c-4.393 2.471-9.417 3.769-15.241 3.769v14Zm22.024-5.523c6.908-3.767 12.341-9.229 16.245-16.216l-12.221-6.829c-2.666 4.77-6.224 8.298-10.727 10.755l6.703 12.29Zm16.245-16.216c3.977-7.118 5.817-15.346 5.817-24.421h-14c0 7.177-1.446 12.953-4.038 17.592l12.221 6.829Zm5.817-24.421v-5.965h-14v5.965h14Zm-8.21-12.86-29.565 5.187 2.419 13.789 29.565-5.186-2.419-13.79Zm-29.447 5.167-4.927.778 2.183 13.829 4.928-.778-2.184-13.829Zm-5.014.793c-7.202 1.229-13.068 2.498-17.458 3.834l4.077 13.393c3.563-1.084 8.763-2.236 15.737-3.427l-2.356-13.8Zm-17.542 3.86c-5.023 1.598-9.297 4.413-12.617 8.445l10.807 8.9c1.521-1.847 3.471-3.182 6.055-4.004l-4.245-13.341Zm-12.646 8.481c-3.604 4.435-4.939 10.106-4.939 16.084h14c0-4.049.913-6.159 1.804-7.256l-10.865-8.828ZM390.882 78.242h7v-7h-7v7Zm4.409 146.527-5.217 4.668.067.074.069.072 5.081-4.814Zm49.015 4.928h7v-7h-7v7Zm0 22.303v7h7v-7h-7Zm-68.465-10.114-5.012 4.886.031.032.031.031 4.95-4.949ZM365.726 78.242v-7h-7v7h7Zm79.099 36.308h7v-7h-7v7Zm0 22.303v7h7v-7h-7Zm-118.259 0h-7v7h7v-7Zm0-22.303v-7h-7v7h7Zm57.316-36.308v133.042h14V78.242h-14Zm0 133.042c0 6.907 1.8 13.243 6.192 18.153l10.434-9.335c-1.486-1.661-2.626-4.315-2.626-8.818h-14Zm6.328 18.299c4.76 5.025 11.213 7.114 18.308 7.114v-14c-4.316 0-6.681-1.197-8.145-2.742l-10.163 9.628Zm18.308 7.114h35.788v-14h-35.788v14Zm28.788-7V252h14v-22.303h-14Zm7 15.303h-37.345v14h37.345v-14Zm-37.345 0c-13.014 0-21.247-3.141-26.171-8.064l-9.899 9.899c8.562 8.563 21.077 12.165 36.07 12.165v-14Zm-26.108-8.001c-5.097-5.228-8.127-13.098-8.127-24.678h-14c0 14.009 3.714 25.848 12.103 34.451l10.024-9.773Zm-8.127-24.678V78.242h-14v134.079h14Zm-7-127.079h25.156v-14h-25.156v14Zm72.099 29.308v22.303h14V114.55h-14Zm7 15.303H326.566v14h118.259v-14Zm-111.259 7V114.55h-14v22.303h14Zm-7-15.303h118.259v-14H326.566v14Zm190.773-53.681h7v-7h-7v7Zm0 76.505-5.29 4.584 12.29 14.181v-18.765h-7Zm-3.371-3.89-6.688-2.067-1.148 3.714 2.546 2.937 5.29-4.584Zm16.079-21.526 3.698 5.944.047-.029.047-.031-3.792-5.884Zm60.685 7.003-5.456 4.384.019.024.02.024 5.417-4.432ZM602.403 252v7h7v-7h-7Zm-25.156 0h-7v7h7v-7Zm-6.484-108.404-5.749 3.993.026.038.027.037 5.696-4.068Zm-44.606.259 5.089 4.807.033-.035.032-.035-5.154-4.737ZM517.339 252v7h7v-7h-7Zm-25.156 0h-7v7h7v-7Zm0-184.132v-7h-7v7h7Zm18.156 0v76.506h14V67.869h-14Zm12.29 71.921-3.371-3.89-10.58 9.169 3.371 3.89 10.58-9.169Zm-1.974 2.762c2.488-8.049 6.868-13.778 13.09-17.649l-7.396-11.887c-9.339 5.811-15.679 14.432-19.069 25.402l13.375 4.134Zm13.184-17.709c6.555-4.224 14.12-6.404 22.92-6.404v-14c-11.256 0-21.499 2.833-30.504 8.636l7.584 11.768Zm22.92-6.404c13.212 0 22.331 4.21 28.517 11.907l10.913-8.769c-9.375-11.667-22.905-17.138-39.43-17.138v14Zm28.556 11.955c6.509 7.956 10.088 18.788 10.088 33.172h14c0-16.736-4.202-30.975-13.253-42.037l-10.835 8.865Zm10.088 33.172V252h14v-88.435h-14Zm7 81.435h-25.156v14h25.156v-14Zm-18.156 7v-80.655h-14V252h14Zm0-80.655c0-13.019-2.216-24.018-7.788-31.818l-11.392 8.137c3.073 4.303 5.18 11.803 5.18 23.681h14Zm-7.734-31.742c-5.94-8.553-15.21-12.343-26.238-12.343v14c7.645 0 12.034 2.434 14.739 6.329l11.499-7.986Zm-26.238-12.343c-11.787 0-21.836 3.766-29.273 11.859l10.309 9.473c4.32-4.702 10.35-7.332 18.964-7.332v-14Zm-29.207 11.789c-7.535 7.977-10.729 19.148-10.729 32.296h14c0-11.056 2.684-18.213 6.907-22.683l-10.178-9.613Zm-10.729 32.296V252h14v-80.655h-14Zm7 73.655h-25.156v14h25.156v-14Zm-18.156 7V67.868h-14V252h14Zm-7-177.132h25.156v-14h-25.156v14Z" mask="url(#a)"/>
  <path fill="#4966FF" d="m747.532 252-4.409-37.604 6.224 2.593c-2.766 11.757-8.644 21.266-17.635 28.527-8.99 7.089-19.277 10.633-30.861 10.633-14.178 0-26.712-3.976-37.605-11.929-10.719-7.953-19.018-19.105-24.896-33.455-5.706-14.523-8.559-31.38-8.559-50.571 0-19.192 2.853-36.049 8.559-50.572 5.878-14.696 14.177-26.02 24.896-33.973 10.893-7.953 23.427-11.93 37.605-11.93 11.238 0 21.438 2.507 30.602 7.52 9.163 4.842 16.857 11.93 23.081 21.267 6.397 9.163 11.065 20.228 14.004 33.195l-33.714 2.075c-2.42-10.719-6.656-19.191-12.707-25.415-5.879-6.225-12.795-9.337-20.748-9.337-8.126 0-15.041 2.68-20.747 8.04-5.532 5.36-9.855 13.053-12.967 23.081-2.939 10.028-4.409 22.044-4.409 36.049 0 14.004 1.47 26.02 4.409 36.048 3.112 9.855 7.435 17.462 12.967 22.822 5.706 5.187 12.621 7.78 20.747 7.78 6.57 0 12.276-1.815 17.117-5.446 5.014-3.631 8.99-8.645 11.929-15.042 2.94-6.57 4.669-13.918 5.187-22.044h-35.529v-27.231h67.428V252h-19.969Zm44.246-68.725c0-14.523 2.68-27.144 8.039-37.864 5.36-10.892 12.881-19.277 22.563-25.156 9.855-5.878 21.352-8.817 34.492-8.817 11.411 0 21.785 2.507 31.121 7.52 9.336 5.014 16.857 12.881 22.563 23.6 5.878 10.547 9.076 23.773 9.595 39.679v8.818h-95.437c1.037 11.584 4.322 20.574 9.855 26.971 5.705 6.225 13.14 9.337 22.303 9.337 6.397 0 12.103-1.729 17.117-5.187 5.013-3.458 8.817-8.299 11.411-14.523l32.676 3.112c-3.803 13.313-11.324 24.032-22.562 32.158-11.065 8.126-23.946 12.189-38.642 12.189-13.14 0-24.637-2.939-34.492-8.817-9.682-5.879-17.203-14.178-22.563-24.897-5.359-10.892-8.039-23.6-8.039-38.123Zm94.659-13.745c-1.729-10.201-5.273-17.808-10.633-22.822-5.187-5.014-11.497-7.521-18.932-7.521-8.299 0-15.128 2.68-20.488 8.04-5.359 5.186-8.904 12.621-10.633 22.303h60.686Zm99.226-54.98 1.815 40.457-5.187-1.816c1.902-13.658 6.657-24.032 14.264-31.12 7.605-7.089 17.205-10.633 28.785-10.633 14.35 0 25.24 4.754 32.68 14.263 7.61 9.337 11.41 21.958 11.41 37.864V252h-30.86v-81.692c0-11.411-1.9-19.883-5.71-25.415-3.8-5.706-9.68-8.559-17.63-8.559-8.47 0-15.13 2.939-19.972 8.818-4.841 5.705-7.261 14.091-7.261 25.156V252h-30.862V114.55h28.528Z"/>
</svg>
